  0
SECTION
  2
BLOCKS
  0
ENDSEC
  0
SECTION
  2
ENTITIES
  0
LINE
  8
0
 10
-70.3401
 20
-32.8493
 11
-70.3401
 21
-32.9566
  0
LINE
  8
0
 10
-70.3401
 20
-32.9566
 11
-69.9532
 21
-35.5301
  0
LINE
  8
0
 10
-69.9532
 20
-35.5301
 11
-69.3401
 21
-39.6074
  0
LINE
  8
0
 10
-69.3401
 20
-39.6074
 11
-69.3401
 21
-56.6074
  0
LINE
  8
0
 10
-69.3401
 20
-56.6074
 11
-62.3401
 21
-63.6074
  0
LINE
  8
0
 10
-62.3401
 20
-63.6074
 11
-7.24014
 21
-63.6074
  0
LINE
  8
0
 10
-7.24014
 20
-63.6074
 11
-0.240145
 21
-56.6074
  0
LINE
  8
0
 10
-0.240145
 20
-56.6074
 11
-0.240145
 21
-56.6074
  0
LINE
  8
0
 10
-0.240145
 20
-56.6074
 11
-0.240145
 21
-46.5074
  0
LINE
  8
0
 10
-0.240145
 20
-46.5074
 11
-0.830206
 21
-39.0215
  0
LINE
  8
0
 10
-0.830206
 20
-39.0215
 11
-1.11253
 21
-35.4399
  0
LINE
  8
0
 10
-1.11253
 20
-35.4399
 11
0.341783
 21
-35.4399
  0
LINE
  8
0
 10
0.341783
 20
-35.4399
 11
7.90911
 21
-35.4399
  0
LINE
  8
0
 10
7.90911
 20
-35.4399
 11
10.0795
 21
-38.6095
  0
LINE
  8
0
 10
10.0795
 20
-38.6095
 11
12.579
 21
-42.2599
  0
LINE
  8
0
 10
12.579
 20
-42.2599
 11
12.579
 21
-42.2599
  0
LINE
  8
0
 10
12.579
 20
-42.2599
 11
21.2584
 21
-42.2599
  0
LINE
  8
0
 10
21.2584
 20
-42.2599
 11
21.3172
 21
-42.2599
  0
LINE
  8
0
 10
21.3172
 20
-42.2599
 11
29.3207
 21
-42.2599
  0
LINE
  8
0
 10
29.3207
 20
-42.2599
 11
31.5337
 21
-50.9282
  0
LINE
  8
0
 10
31.5337
 20
-50.9282
 11
33.916
 21
-60.2599
  0
LINE
  8
0
 10
33.916
 20
-60.2599
 11
33.96
 21
-60.2599
  0
LINE
  8
0
 10
33.96
 20
-60.2599
 11
41.9625
 21
-60.2599
  0
LINE
  8
0
 10
41.9625
 20
-60.2599
 11
50.8984
 21
-60.2599
  0
LINE
  8
0
 10
50.8984
 20
-60.2599
 11
52.5581
 21
-60.2599
  0
LINE
  8
0
 10
52.5581
 20
-60.2599
 11
71.539
 21
-60.2599
  0
LINE
  8
0
 10
71.539
 20
-60.2599
 11
75.247
 21
-56.7334
  0
LINE
  8
0
 10
75.247
 20
-56.7334
 11
78.539
 21
-53.6025
  0
LINE
  8
0
 10
78.539
 20
-53.6025
 11
78.539
 21
-53.552
  0
LINE
  8
0
 10
78.539
 20
-53.552
 11
78.539
 21
-53.552
  0
LINE
  8
0
 10
78.539
 20
-53.552
 11
78.539
 21
-41.6848
  0
LINE
  8
0
 10
78.539
 20
-41.6848
 11
78.539
 21
-37.3648
  0
LINE
  8
0
 10
78.539
 20
-37.3648
 11
78.539
 21
-31.9626
  0
LINE
  8
0
 10
78.539
 20
-31.9626
 11
78.539
 21
-12.0374
  0
LINE
  8
0
 10
78.539
 20
-12.0374
 11
78.539
 21
-6.63517
  0
LINE
  8
0
 10
78.539
 20
-6.63517
 11
78.539
 21
-2.31515
  0
LINE
  8
0
 10
78.539
 20
-2.31515
 11
78.539
 21
9.55202
  0
LINE
  8
0
 10
78.539
 20
9.55202
 11
78.539
 21
9.55202
  0
LINE
  8
0
 10
78.539
 20
9.55202
 11
78.539
 21
9.60248
  0
LINE
  8
0
 10
78.539
 20
9.60248
 11
75.247
 21
12.7334
  0
LINE
  8
0
 10
75.247
 20
12.7334
 11
71.539
 21
16.2599
  0
LINE
  8
0
 10
71.539
 20
16.2599
 11
52.5581
 21
16.2599
  0
LINE
  8
0
 10
52.5581
 20
16.2599
 11
50.8984
 21
16.2599
  0
LINE
  8
0
 10
50.8984
 20
16.2599
 11
41.9625
 21
16.2599
  0
LINE
  8
0
 10
41.9625
 20
16.2599
 11
34.0292
 21
16.2599
  0
LINE
  8
0
 10
34.0292
 20
16.2599
 11
32.0836
 21
24.1619
  0
LINE
  8
0
 10
32.0836
 20
24.1619
 11
29.7495
 21
33.6418
  0
LINE
  8
0
 10
29.7495
 20
33.6418
 11
29.5756
 21
33.9673
  0
LINE
  8
0
 10
29.5756
 20
33.9673
 11
29.4192
 21
34.2599
  0
LINE
  8
0
 10
29.4192
 20
34.2599
 11
21.3172
 21
34.2599
  0
LINE
  8
0
 10
21.3172
 20
34.2599
 11
21.2584
 21
34.2599
  0
LINE
  8
0
 10
21.2584
 20
34.2599
 11
12.6775
 21
34.2599
  0
LINE
  8
0
 10
12.6775
 20
34.2599
 11
10.3811
 21
37.6675
  0
LINE
  8
0
 10
10.3811
 20
37.6675
 11
8.49801
 21
40.4618
  0
LINE
  8
0
 10
8.49801
 20
40.4618
 11
8.24614
 21
40.778
  0
LINE
  8
0
 10
8.24614
 20
40.778
 11
8.00571
 21
41.0799
  0
LINE
  8
0
 10
8.00571
 20
41.0799
 11
0.341783
 21
41.0799
  0
LINE
  8
0
 10
0.341783
 20
41.0799
 11
-8.46964
 21
41.0799
  0
LINE
  8
0
 10
-8.46964
 20
41.0799
 11
-8.51162
 21
41.0799
  0
LINE
  8
0
 10
-8.51162
 20
41.0799
 11
-9.79012
 21
37.7861
  0
LINE
  8
0
 10
-9.79012
 20
37.7861
 11
-10.7707
 21
35.2599
  0
LINE
  8
0
 10
-10.7707
 20
35.2599
 11
-21.0838
 21
35.2599
  0
LINE
  8
0
 10
-21.0838
 20
35.2599
 11
-26.7179
 21
35.2599
  0
LINE
  8
0
 10
-26.7179
 20
35.2599
 11
-29.0628
 21
35.2599
  0
LINE
  8
0
 10
-29.0628
 20
35.2599
 11
-29.0912
 21
35.2599
  0
LINE
  8
0
 10
-29.0912
 20
35.2599
 11
-30.0362
 21
35.2599
  0
LINE
  8
0
 10
-30.0362
 20
35.2599
 11
-41.1027
 21
35.2599
  0
LINE
  8
0
 10
-41.1027
 20
35.2599
 11
-45.4689
 21
35.2599
  0
LINE
  8
0
 10
-45.4689
 20
35.2599
 11
-46.5361
 21
34.9489
  0
LINE
  8
0
 10
-46.5361
 20
34.9489
 11
-49.4234
 21
34.1074
  0
LINE
  8
0
 10
-49.4234
 20
34.1074
 11
-56.4234
 21
27.1074
  0
LINE
  8
0
 10
-56.4234
 20
27.1074
 11
-58.054
 21
15.2332
  0
LINE
  8
0
 10
-58.054
 20
15.2332
 11
-58.6566
 21
10.8443
  0
LINE
  8
0
 10
-58.6566
 20
10.8443
 11
-58.7678
 21
9.18308
  0
LINE
  8
0
 10
-58.7678
 20
9.18308
 11
-59.0077
 21
5.59999
  0
LINE
  8
0
 10
-59.0077
 20
5.59999
 11
-59.0077
 21
-11.5
  0
LINE
  8
0
 10
-59.0077
 20
-11.5
 11
-66.7503
 21
-14.4167
  0
LINE
  8
0
 10
-66.7503
 20
-14.4167
 11
-66.9625
 21
-14.4966
  0
LINE
  8
0
 10
-66.9625
 20
-14.4966
 11
-70.3401
 21
-15.769
  0
LINE
  8
0
 10
-70.3401
 20
-15.769
 11
-70.3401
 21
-15.769
  0
LINE
  8
0
 10
-70.3401
 20
-15.769
 11
-70.3401
 21
-20.9716
  0
LINE
  8
0
 10
-70.3401
 20
-20.9716
 11
-70.3401
 21
-32.8493
  0
LINE
  8
0
 10
-68.2401
 20
-32.5108
 11
-68.2401
 21
-28.4371
  0
LINE
  8
0
 10
-68.2401
 20
-28.4371
 11
-68.2401
 21
-21.9784
  0
LINE
  8
0
 10
-68.2401
 20
-21.9784
 11
-68.1558
 21
-22.0397
  0
LINE
  8
0
 10
-68.1558
 20
-22.0397
 11
-67.4205
 21
-22.367
  0
LINE
  8
0
 10
-67.4205
 20
-22.367
 11
-66.6332
 21
-22.5344
  0
LINE
  8
0
 10
-66.6332
 20
-22.5344
 11
-65.8284
 21
-22.5344
  0
LINE
  8
0
 10
-65.8284
 20
-22.5344
 11
-65.0411
 21
-22.367
  0
LINE
  8
0
 10
-65.0411
 20
-22.367
 11
-64.3058
 21
-22.0397
  0
LINE
  8
0
 10
-64.3058
 20
-22.0397
 11
-63.6546
 21
-21.5666
  0
LINE
  8
0
 10
-63.6546
 20
-21.5666
 11
-63.1161
 21
-20.9684
  0
LINE
  8
0
 10
-63.1161
 20
-20.9684
 11
-62.7137
 21
-20.2714
  0
LINE
  8
0
 10
-62.7137
 20
-20.2714
 11
-62.4649
 21
-19.5059
  0
LINE
  8
0
 10
-62.4649
 20
-19.5059
 11
-62.3808
 21
-18.7055
  0
LINE
  8
0
 10
-62.3808
 20
-18.7055
 11
-62.4649
 21
-17.905
  0
LINE
  8
0
 10
-62.4649
 20
-17.905
 11
-62.7137
 21
-17.1395
  0
LINE
  8
0
 10
-62.7137
 20
-17.1395
 11
-63.1161
 21
-16.4425
  0
LINE
  8
0
 10
-63.1161
 20
-16.4425
 11
-63.6546
 21
-15.8444
  0
LINE
  8
0
 10
-63.6546
 20
-15.8444
 11
-64.3058
 21
-15.3713
  0
LINE
  8
0
 10
-64.3058
 20
-15.3713
 11
-65.0411
 21
-15.0439
  0
LINE
  8
0
 10
-65.0411
 20
-15.0439
 11
-65.2538
 21
-14.9987
  0
LINE
  8
0
 10
-65.2538
 20
-14.9987
 11
-59.9506
 21
-12.8391
  0
LINE
  8
0
 10
-59.9506
 20
-12.8391
 11
-56.9077
 21
-11.6
  0
LINE
  8
0
 10
-56.9077
 20
-11.6
 11
-56.9077
 21
-11.6
  0
LINE
  8
0
 10
-56.9077
 20
-11.6
 11
-56.9077
 21
5.5
  0
LINE
  8
0
 10
-56.9077
 20
5.5
 11
-56.6613
 21
9.18124
  0
LINE
  8
0
 10
-56.6613
 20
9.18124
 11
-56.5566
 21
10.7443
  0
LINE
  8
0
 10
-56.5566
 20
10.7443
 11
-54.9746
 21
22.2655
  0
LINE
  8
0
 10
-54.9746
 20
22.2655
 11
-54.7485
 21
23.9119
  0
LINE
  8
0
 10
-54.7485
 20
23.9119
 11
-54.6048
 21
23.6629
  0
LINE
  8
0
 10
-54.6048
 20
23.6629
 11
-54.0662
 21
23.0648
  0
LINE
  8
0
 10
-54.0662
 20
23.0648
 11
-53.415
 21
22.5917
  0
LINE
  8
0
 10
-53.415
 20
22.5917
 11
-52.6798
 21
22.2643
  0
LINE
  8
0
 10
-52.6798
 20
22.2643
 11
-51.8925
 21
22.097
  0
LINE
  8
0
 10
-51.8925
 20
22.097
 11
-51.0876
 21
22.097
  0
LINE
  8
0
 10
-51.0876
 20
22.097
 11
-50.3003
 21
22.2643
  0
LINE
  8
0
 10
-50.3003
 20
22.2643
 11
-49.565
 21
22.5917
  0
LINE
  8
0
 10
-49.565
 20
22.5917
 11
-48.9139
 21
23.0648
  0
LINE
  8
0
 10
-48.9139
 20
23.0648
 11
-48.3753
 21
23.6629
  0
LINE
  8
0
 10
-48.3753
 20
23.6629
 11
-47.9729
 21
24.3599
  0
LINE
  8
0
 10
-47.9729
 20
24.3599
 11
-47.7242
 21
25.1254
  0
LINE
  8
0
 10
-47.7242
 20
25.1254
 11
-47.64
 21
25.9259
  0
LINE
  8
0
 10
-47.64
 20
25.9259
 11
-47.7242
 21
26.7263
  0
LINE
  8
0
 10
-47.7242
 20
26.7263
 11
-47.9729
 21
27.4918
  0
LINE
  8
0
 10
-47.9729
 20
27.4918
 11
-48.3753
 21
28.1888
  0
LINE
  8
0
 10
-48.3753
 20
28.1888
 11
-48.9139
 21
28.787
  0
LINE
  8
0
 10
-48.9139
 20
28.787
 11
-49.565
 21
29.2601
  0
LINE
  8
0
 10
-49.565
 20
29.2601
 11
-50.3003
 21
29.5874
  0
LINE
  8
0
 10
-50.3003
 20
29.5874
 11
-51.0876
 21
29.7548
  0
LINE
  8
0
 10
-51.0876
 20
29.7548
 11
-51.576
 21
29.7548
  0
LINE
  8
0
 10
-51.576
 20
29.7548
 11
-49.3234
 21
32.0074
  0
LINE
  8
0
 10
-49.3234
 20
32.0074
 11
-48.3003
 21
32.1531
  0
LINE
  8
0
 10
-48.3003
 20
32.1531
 11
-44.8487
 21
32.6446
  0
LINE
  8
0
 10
-44.8487
 20
32.6446
 11
-32.9815
 21
32.6446
  0
LINE
  8
0
 10
-32.9815
 20
32.6446
 11
-29.4662
 21
32.6446
  0
LINE
  8
0
 10
-29.4662
 20
32.6446
 11
-27.1254
 21
32.6446
  0
LINE
  8
0
 10
-27.1254
 20
32.6446
 11
-26.2462
 21
32.6446
  0
LINE
  8
0
 10
-26.2462
 20
32.6446
 11
-14.7949
 21
32.6446
  0
LINE
  8
0
 10
-14.7949
 20
32.6446
 11
-10.2481
 21
32.6446
  0
LINE
  8
0
 10
-10.2481
 20
32.6446
 11
-9.19123
 21
35.4957
  0
LINE
  8
0
 10
-9.19123
 20
35.4957
 11
-9.17878
 21
35.3773
  0
LINE
  8
0
 10
-9.17878
 20
35.3773
 11
-8.93007
 21
34.6118
  0
LINE
  8
0
 10
-8.93007
 20
34.6118
 11
-8.52763
 21
33.9148
  0
LINE
  8
0
 10
-8.52763
 20
33.9148
 11
-7.98907
 21
33.3167
  0
LINE
  8
0
 10
-7.98907
 20
33.3167
 11
-7.33792
 21
32.8436
  0
LINE
  8
0
 10
-7.33792
 20
32.8436
 11
-6.60263
 21
32.5162
  0
LINE
  8
0
 10
-6.60263
 20
32.5162
 11
-5.81535
 21
32.3489
  0
LINE
  8
0
 10
-5.81535
 20
32.3489
 11
-5.01048
 21
32.3489
  0
LINE
  8
0
 10
-5.01048
 20
32.3489
 11
-4.2232
 21
32.5162
  0
LINE
  8
0
 10
-4.2232
 20
32.5162
 11
-3.48792
 21
32.8436
  0
LINE
  8
0
 10
-3.48792
 20
32.8436
 11
-2.83676
 21
33.3167
  0
LINE
  8
0
 10
-2.83676
 20
33.3167
 11
-2.2982
 21
33.9148
  0
LINE
  8
0
 10
-2.2982
 20
33.9148
 11
-1.89577
 21
34.6118
  0
LINE
  8
0
 10
-1.89577
 20
34.6118
 11
-1.64705
 21
35.3773
  0
LINE
  8
0
 10
-1.64705
 20
35.3773
 11
-1.56292
 21
36.1778
  0
LINE
  8
0
 10
-1.56292
 20
36.1778
 11
-1.64705
 21
36.9782
  0
LINE
  8
0
 10
-1.64705
 20
36.9782
 11
-1.89577
 21
37.7437
  0
LINE
  8
0
 10
-1.89577
 20
37.7437
 11
-2.2982
 21
38.4407
  0
LINE
  8
0
 10
-2.2982
 20
38.4407
 11
-2.3197
 21
38.4646
  0
LINE
  8
0
 10
-2.3197
 20
38.4646
 11
1.51551
 21
38.4646
  0
LINE
  8
0
 10
1.51551
 20
38.4646
 11
8.16122
 21
38.4646
  0
LINE
  8
0
 10
8.16122
 20
38.4646
 11
9.89836
 21
35.9088
  0
LINE
  8
0
 10
9.89836
 20
35.9088
 11
12.7966
 21
31.6446
  0
LINE
  8
0
 10
12.7966
 20
31.6446
 11
22.451
 21
31.6446
  0
LINE
  8
0
 10
22.451
 20
31.6446
 11
29.3678
 21
31.6446
  0
LINE
  8
0
 10
29.3678
 20
31.6446
 11
31.3664
 21
23.9104
  0
LINE
  8
0
 10
31.3664
 20
23.9104
 11
33.8594
 21
14.2627
  0
LINE
  8
0
 10
33.8594
 20
14.2627
 11
33.9289
 21
14.0039
  0
LINE
  8
0
 10
33.9289
 20
14.0039
 11
34.0252
 21
13.6446
  0
LINE
  8
0
 10
34.0252
 20
13.6446
 11
43.9277
 21
13.6446
  0
LINE
  8
0
 10
43.9277
 20
13.6446
 11
51.0157
 21
13.6446
  0
LINE
  8
0
 10
51.0157
 20
13.6446
 11
52.9426
 21
13.6446
  0
LINE
  8
0
 10
52.9426
 20
13.6446
 11
54.539
 21
13.6446
  0
LINE
  8
0
 10
54.539
 20
13.6446
 11
69.393
 21
13.6446
  0
LINE
  8
0
 10
69.393
 20
13.6446
 11
68.9628
 21
13.3321
  0
LINE
  8
0
 10
68.9628
 20
13.3321
 11
68.4243
 21
12.7339
  0
LINE
  8
0
 10
68.4243
 20
12.7339
 11
68.0218
 21
12.0369
  0
LINE
  8
0
 10
68.0218
 20
12.0369
 11
67.7731
 21
11.2714
  0
LINE
  8
0
 10
67.7731
 20
11.2714
 11
67.689
 21
10.4709
  0
LINE
  8
0
 10
67.689
 20
10.4709
 11
67.7731
 21
9.67049
  0
LINE
  8
0
 10
67.7731
 20
9.67049
 11
68.0218
 21
8.90501
  0
LINE
  8
0
 10
68.0218
 20
8.90501
 11
68.4243
 21
8.20798
  0
LINE
  8
0
 10
68.4243
 20
8.20798
 11
68.9628
 21
7.60984
  0
LINE
  8
0
 10
68.9628
 20
7.60984
 11
69.614
 21
7.13675
  0
LINE
  8
0
 10
69.614
 20
7.13675
 11
70.3493
 21
6.80938
  0
LINE
  8
0
 10
70.3493
 20
6.80938
 11
71.1365
 21
6.64204
  0
LINE
  8
0
 10
71.1365
 20
6.64204
 11
71.9414
 21
6.64204
  0
LINE
  8
0
 10
71.9414
 20
6.64204
 11
72.7287
 21
6.80938
  0
LINE
  8
0
 10
72.7287
 20
6.80938
 11
73.464
 21
7.13675
  0
LINE
  8
0
 10
73.464
 20
7.13675
 11
74.1151
 21
7.60984
  0
LINE
  8
0
 10
74.1151
 20
7.60984
 11
74.6537
 21
8.20798
  0
LINE
  8
0
 10
74.6537
 20
8.20798
 11
75.0561
 21
8.90501
  0
LINE
  8
0
 10
75.0561
 20
8.90501
 11
75.3049
 21
9.67049
  0
LINE
  8
0
 10
75.3049
 20
9.67049
 11
75.3333
 21
9.94092
  0
LINE
  8
0
 10
75.3333
 20
9.94092
 11
76.439
 21
8.88933
  0
LINE
  8
0
 10
76.439
 20
8.88933
 11
76.439
 21
0.554314
  0
LINE
  8
0
 10
76.439
 20
0.554314
 11
76.439
 21
-7.2175
  0
LINE
  8
0
 10
76.439
 20
-7.2175
 11
76.439
 21
-9.45859
  0
LINE
  8
0
 10
76.439
 20
-9.45859
 11
76.439
 21
-13.55
  0
LINE
  8
0
 10
76.439
 20
-13.55
 11
76.439
 21
-30.45
  0
LINE
  8
0
 10
76.439
 20
-30.45
 11
76.439
 21
-34.5414
  0
LINE
  8
0
 10
76.439
 20
-34.5414
 11
76.439
 21
-36.7825
  0
LINE
  8
0
 10
76.439
 20
-36.7825
 11
76.439
 21
-44.5543
  0
LINE
  8
0
 10
76.439
 20
-44.5543
 11
76.439
 21
-52.8893
  0
LINE
  8
0
 10
76.439
 20
-52.8893
 11
75.3333
 21
-53.9409
  0
LINE
  8
0
 10
75.3333
 20
-53.9409
 11
75.3049
 21
-53.6705
  0
LINE
  8
0
 10
75.3049
 20
-53.6705
 11
75.0561
 21
-52.905
  0
LINE
  8
0
 10
75.0561
 20
-52.905
 11
74.6537
 21
-52.208
  0
LINE
  8
0
 10
74.6537
 20
-52.208
 11
74.1151
 21
-51.6098
  0
LINE
  8
0
 10
74.1151
 20
-51.6098
 11
73.464
 21
-51.1368
  0
LINE
  8
0
 10
73.464
 20
-51.1368
 11
72.7287
 21
-50.8094
  0
LINE
  8
0
 10
72.7287
 20
-50.8094
 11
71.9414
 21
-50.642
  0
LINE
  8
0
 10
71.9414
 20
-50.642
 11
71.1365
 21
-50.642
  0
LINE
  8
0
 10
71.1365
 20
-50.642
 11
70.3493
 21
-50.8094
  0
LINE
  8
0
 10
70.3493
 20
-50.8094
 11
69.614
 21
-51.1368
  0
LINE
  8
0
 10
69.614
 20
-51.1368
 11
68.9628
 21
-51.6098
  0
LINE
  8
0
 10
68.9628
 20
-51.6098
 11
68.4243
 21
-52.208
  0
LINE
  8
0
 10
68.4243
 20
-52.208
 11
68.0218
 21
-52.905
  0
LINE
  8
0
 10
68.0218
 20
-52.905
 11
67.7731
 21
-53.6705
  0
LINE
  8
0
 10
67.7731
 20
-53.6705
 11
67.689
 21
-54.4709
  0
LINE
  8
0
 10
67.689
 20
-54.4709
 11
67.7731
 21
-55.2714
  0
LINE
  8
0
 10
67.7731
 20
-55.2714
 11
68.0218
 21
-56.0369
  0
LINE
  8
0
 10
68.0218
 20
-56.0369
 11
68.4243
 21
-56.7339
  0
LINE
  8
0
 10
68.4243
 20
-56.7339
 11
68.9628
 21
-57.3321
  0
LINE
  8
0
 10
68.9628
 20
-57.3321
 11
69.393
 21
-57.6446
  0
LINE
  8
0
 10
69.393
 20
-57.6446
 11
54.539
 21
-57.6446
  0
LINE
  8
0
 10
54.539
 20
-57.6446
 11
52.9426
 21
-57.6446
  0
LINE
  8
0
 10
52.9426
 20
-57.6446
 11
51.0157
 21
-57.6446
  0
LINE
  8
0
 10
51.0157
 20
-57.6446
 11
43.9277
 21
-57.6446
  0
LINE
  8
0
 10
43.9277
 20
-57.6446
 11
34.1248
 21
-57.6446
  0
LINE
  8
0
 10
34.1248
 20
-57.6446
 11
31.5167
 21
-47.1843
  0
LINE
  8
0
 10
31.5167
 20
-47.1843
 11
29.6368
 21
-39.6446
  0
LINE
  8
0
 10
29.6368
 20
-39.6446
 11
29.6368
 21
-39.6446
  0
LINE
  8
0
 10
29.6368
 20
-39.6446
 11
22.451
 21
-39.6446
  0
LINE
  8
0
 10
22.451
 20
-39.6446
 11
12.8951
 21
-39.6446
  0
LINE
  8
0
 10
12.8951
 20
-39.6446
 11
10.2795
 21
-35.7371
  0
LINE
  8
0
 10
10.2795
 20
-35.7371
 11
8.33005
 21
-32.8246
  0
LINE
  8
0
 10
8.33005
 20
-32.8246
 11
8.33005
 21
-32.8246
  0
LINE
  8
0
 10
8.33005
 20
-32.8246
 11
1.51551
 21
-32.8246
  0
LINE
  8
0
 10
1.51551
 20
-32.8246
 11
-8.18727
 21
-32.8246
  0
LINE
  8
0
 10
-8.18727
 20
-32.8246
 11
-8.40686
 21
-33.1003
  0
LINE
  8
0
 10
-8.40686
 20
-33.1003
 11
-8.40688
 21
-33.1003
  0
LINE
  8
0
 10
-8.40688
 20
-33.1003
 11
-8.67957
 21
-33.4427
  0
LINE
  8
0
 10
-8.67957
 20
-33.4427
 11
-8.67514
 21
-33.4953
  0
LINE
  8
0
 10
-8.67514
 20
-33.4953
 11
-8.67158
 21
-33.5378
  0
LINE
  8
0
 10
-8.67158
 20
-33.5378
 11
-8.58288
 21
-34.5925
  0
LINE
  8
0
 10
-8.58288
 20
-34.5925
 11
-8.51162
 21
-35.4399
  0
LINE
  8
0
 10
-8.51162
 20
-35.4399
 11
-8.46964
 21
-35.4399
  0
LINE
  8
0
 10
-8.46964
 20
-35.4399
 11
-7.53993
 21
-35.4399
  0
LINE
  8
0
 10
-7.53993
 20
-35.4399
 11
-7.56803
 21
-35.4524
  0
LINE
  8
0
 10
-7.56803
 20
-35.4524
 11
-8.21918
 21
-35.9255
  0
LINE
  8
0
 10
-8.21918
 20
-35.9255
 11
-8.75774
 21
-36.5236
  0
LINE
  8
0
 10
-8.75774
 20
-36.5236
 11
-9.16018
 21
-37.2206
  0
LINE
  8
0
 10
-9.16018
 20
-37.2206
 11
-9.4089
 21
-37.9861
  0
LINE
  8
0
 10
-9.4089
 20
-37.9861
 11
-9.49303
 21
-38.7866
  0
LINE
  8
0
 10
-9.49303
 20
-38.7866
 11
-9.4089
 21
-39.587
  0
LINE
  8
0
 10
-9.4089
 20
-39.587
 11
-9.16018
 21
-40.3525
  0
LINE
  8
0
 10
-9.16018
 20
-40.3525
 11
-8.75774
 21
-41.0496
  0
LINE
  8
0
 10
-8.75774
 20
-41.0496
 11
-8.21918
 21
-41.6477
  0
LINE
  8
0
 10
-8.21918
 20
-41.6477
 11
-7.56803
 21
-42.1208
  0
LINE
  8
0
 10
-7.56803
 20
-42.1208
 11
-6.83275
 21
-42.4481
  0
LINE
  8
0
 10
-6.83275
 20
-42.4481
 11
-6.04546
 21
-42.6155
  0
LINE
  8
0
 10
-6.04546
 20
-42.6155
 11
-5.2406
 21
-42.6155
  0
LINE
  8
0
 10
-5.2406
 20
-42.6155
 11
-4.45331
 21
-42.4481
  0
LINE
  8
0
 10
-4.45331
 20
-42.4481
 11
-3.71803
 21
-42.1208
  0
LINE
  8
0
 10
-3.71803
 20
-42.1208
 11
-3.06688
 21
-41.6477
  0
LINE
  8
0
 10
-3.06688
 20
-41.6477
 11
-2.78426
 21
-41.3338
  0
LINE
  8
0
 10
-2.78426
 20
-41.3338
 11
-2.34014
 21
-44.6074
  0
LINE
  8
0
 10
-2.34014
 20
-44.6074
 11
-2.34014
 21
-56.5074
  0
LINE
  8
0
 10
-2.34014
 20
-56.5074
 11
-7.34014
 21
-61.5074
  0
LINE
  8
0
 10
-7.34014
 20
-61.5074
 11
-58.6014
 21
-61.5074
  0
LINE
  8
0
 10
-58.6014
 20
-61.5074
 11
-58.1161
 21
-60.9684
  0
LINE
  8
0
 10
-58.1161
 20
-60.9684
 11
-57.7137
 21
-60.2714
  0
LINE
  8
0
 10
-57.7137
 20
-60.2714
 11
-57.4649
 21
-59.5059
  0
LINE
  8
0
 10
-57.4649
 20
-59.5059
 11
-57.3808
 21
-58.7055
  0
LINE
  8
0
 10
-57.3808
 20
-58.7055
 11
-57.4649
 21
-57.905
  0
LINE
  8
0
 10
-57.4649
 20
-57.905
 11
-57.7137
 21
-57.1395
  0
LINE
  8
0
 10
-57.7137
 20
-57.1395
 11
-58.1161
 21
-56.4425
  0
LINE
  8
0
 10
-58.1161
 20
-56.4425
 11
-58.6546
 21
-55.8444
  0
LINE
  8
0
 10
-58.6546
 20
-55.8444
 11
-59.3058
 21
-55.3713
  0
LINE
  8
0
 10
-59.3058
 20
-55.3713
 11
-60.0411
 21
-55.0439
  0
LINE
  8
0
 10
-60.0411
 20
-55.0439
 11
-60.8284
 21
-54.8766
  0
LINE
  8
0
 10
-60.8284
 20
-54.8766
 11
-61.6332
 21
-54.8766
  0
LINE
  8
0
 10
-61.6332
 20
-54.8766
 11
-62.4205
 21
-55.0439
  0
LINE
  8
0
 10
-62.4205
 20
-55.0439
 11
-63.1558
 21
-55.3713
  0
LINE
  8
0
 10
-63.1558
 20
-55.3713
 11
-63.807
 21
-55.8444
  0
LINE
  8
0
 10
-63.807
 20
-55.8444
 11
-64.3455
 21
-56.4425
  0
LINE
  8
0
 10
-64.3455
 20
-56.4425
 11
-64.748
 21
-57.1395
  0
LINE
  8
0
 10
-64.748
 20
-57.1395
 11
-64.9967
 21
-57.905
  0
LINE
  8
0
 10
-64.9967
 20
-57.905
 11
-65.0771
 21
-58.6704
  0
LINE
  8
0
 10
-65.0771
 20
-58.6704
 11
-67.2401
 21
-56.5074
  0
LINE
  8
0
 10
-67.2401
 20
-56.5074
 11
-67.2401
 21
-39.5074
  0
LINE
  8
0
 10
-67.2401
 20
-39.5074
 11
-67.5489
 21
-37.3472
  0
LINE
  8
0
 10
-67.5489
 20
-37.3472
 11
-68.2401
 21
-32.5108
  0
LINE
  8
0
 10
-67.9308
 20
-18.7055
 11
-67.8937
 21
-18.352
  0
LINE
  8
0
 10
-67.8937
 20
-18.352
 11
-67.7838
 21
-18.014
  0
LINE
  8
0
 10
-67.7838
 20
-18.014
 11
-67.6061
 21
-17.7062
  0
LINE
  8
0
 10
-67.6061
 20
-17.7062
 11
-67.3683
 21
-17.4421
  0
LINE
  8
0
 10
-67.3683
 20
-17.4421
 11
-67.0808
 21
-17.2332
  0
LINE
  8
0
 10
-67.0808
 20
-17.2332
 11
-66.7561
 21
-17.0887
  0
LINE
  8
0
 10
-66.7561
 20
-17.0887
 11
-66.4085
 21
-17.0148
  0
LINE
  8
0
 10
-66.4085
 20
-17.0148
 11
-66.0531
 21
-17.0148
  0
LINE
  8
0
 10
-66.0531
 20
-17.0148
 11
-65.7055
 21
-17.0887
  0
LINE
  8
0
 10
-65.7055
 20
-17.0887
 11
-65.3808
 21
-17.2332
  0
LINE
  8
0
 10
-65.3808
 20
-17.2332
 11
-65.0933
 21
-17.4421
  0
LINE
  8
0
 10
-65.0933
 20
-17.4421
 11
-64.8555
 21
-17.7062
  0
LINE
  8
0
 10
-64.8555
 20
-17.7062
 11
-64.6778
 21
-18.014
  0
LINE
  8
0
 10
-64.6778
 20
-18.014
 11
-64.568
 21
-18.352
  0
LINE
  8
0
 10
-64.568
 20
-18.352
 11
-64.5308
 21
-18.7055
  0
LINE
  8
0
 10
-64.5308
 20
-18.7055
 11
-64.568
 21
-19.0589
  0
LINE
  8
0
 10
-64.568
 20
-19.0589
 11
-64.6778
 21
-19.3969
  0
LINE
  8
0
 10
-64.6778
 20
-19.3969
 11
-64.8555
 21
-19.7047
  0
LINE
  8
0
 10
-64.8555
 20
-19.7047
 11
-65.0933
 21
-19.9688
  0
LINE
  8
0
 10
-65.0933
 20
-19.9688
 11
-65.3808
 21
-20.1777
  0
LINE
  8
0
 10
-65.3808
 20
-20.1777
 11
-65.7055
 21
-20.3223
  0
LINE
  8
0
 10
-65.7055
 20
-20.3223
 11
-66.0531
 21
-20.3962
  0
LINE
  8
0
 10
-66.0531
 20
-20.3962
 11
-66.4085
 21
-20.3962
  0
LINE
  8
0
 10
-66.4085
 20
-20.3962
 11
-66.7561
 21
-20.3223
  0
LINE
  8
0
 10
-66.7561
 20
-20.3223
 11
-67.0808
 21
-20.1777
  0
LINE
  8
0
 10
-67.0808
 20
-20.1777
 11
-67.3683
 21
-19.9688
  0
LINE
  8
0
 10
-67.3683
 20
-19.9688
 11
-67.6061
 21
-19.7047
  0
LINE
  8
0
 10
-67.6061
 20
-19.7047
 11
-67.7838
 21
-19.3969
  0
LINE
  8
0
 10
-67.7838
 20
-19.3969
 11
-67.8937
 21
-19.0589
  0
LINE
  8
0
 10
-67.8937
 20
-19.0589
 11
-67.9308
 21
-18.7055
  0
LINE
  8
0
 10
-62.9308
 20
-58.7055
 11
-62.8937
 21
-58.352
  0
LINE
  8
0
 10
-62.8937
 20
-58.352
 11
-62.7838
 21
-58.014
  0
LINE
  8
0
 10
-62.7838
 20
-58.014
 11
-62.6061
 21
-57.7062
  0
LINE
  8
0
 10
-62.6061
 20
-57.7062
 11
-62.3683
 21
-57.4421
  0
LINE
  8
0
 10
-62.3683
 20
-57.4421
 11
-62.0808
 21
-57.2332
  0
LINE
  8
0
 10
-62.0808
 20
-57.2332
 11
-61.7561
 21
-57.0887
  0
LINE
  8
0
 10
-61.7561
 20
-57.0887
 11
-61.4085
 21
-57.0148
  0
LINE
  8
0
 10
-61.4085
 20
-57.0148
 11
-61.0531
 21
-57.0148
  0
LINE
  8
0
 10
-61.0531
 20
-57.0148
 11
-60.7055
 21
-57.0887
  0
LINE
  8
0
 10
-60.7055
 20
-57.0887
 11
-60.3808
 21
-57.2332
  0
LINE
  8
0
 10
-60.3808
 20
-57.2332
 11
-60.0933
 21
-57.4421
  0
LINE
  8
0
 10
-60.0933
 20
-57.4421
 11
-59.8555
 21
-57.7062
  0
LINE
  8
0
 10
-59.8555
 20
-57.7062
 11
-59.6778
 21
-58.014
  0
LINE
  8
0
 10
-59.6778
 20
-58.014
 11
-59.568
 21
-58.352
  0
LINE
  8
0
 10
-59.568
 20
-58.352
 11
-59.5308
 21
-58.7055
  0
LINE
  8
0
 10
-59.5308
 20
-58.7055
 11
-59.568
 21
-59.0589
  0
LINE
  8
0
 10
-59.568
 20
-59.0589
 11
-59.6778
 21
-59.3969
  0
LINE
  8
0
 10
-59.6778
 20
-59.3969
 11
-59.8555
 21
-59.7047
  0
LINE
  8
0
 10
-59.8555
 20
-59.7047
 11
-60.0933
 21
-59.9688
  0
LINE
  8
0
 10
-60.0933
 20
-59.9688
 11
-60.3808
 21
-60.1777
  0
LINE
  8
0
 10
-60.3808
 20
-60.1777
 11
-60.7055
 21
-60.3223
  0
LINE
  8
0
 10
-60.7055
 20
-60.3223
 11
-61.0531
 21
-60.3962
  0
LINE
  8
0
 10
-61.0531
 20
-60.3962
 11
-61.4085
 21
-60.3962
  0
LINE
  8
0
 10
-61.4085
 20
-60.3962
 11
-61.7561
 21
-60.3223
  0
LINE
  8
0
 10
-61.7561
 20
-60.3223
 11
-62.0808
 21
-60.1777
  0
LINE
  8
0
 10
-62.0808
 20
-60.1777
 11
-62.3683
 21
-59.9688
  0
LINE
  8
0
 10
-62.3683
 20
-59.9688
 11
-62.6061
 21
-59.7047
  0
LINE
  8
0
 10
-62.6061
 20
-59.7047
 11
-62.7838
 21
-59.3969
  0
LINE
  8
0
 10
-62.7838
 20
-59.3969
 11
-62.8937
 21
-59.0589
  0
LINE
  8
0
 10
-62.8937
 20
-59.0589
 11
-62.9308
 21
-58.7055
  0
LINE
  8
0
 10
-53.19
 20
25.9259
 11
-53.1529
 21
26.2793
  0
LINE
  8
0
 10
-53.1529
 20
26.2793
 11
-53.0431
 21
26.6173
  0
LINE
  8
0
 10
-53.0431
 20
26.6173
 11
-52.8654
 21
26.9251
  0
LINE
  8
0
 10
-52.8654
 20
26.9251
 11
-52.6276
 21
27.1892
  0
LINE
  8
0
 10
-52.6276
 20
27.1892
 11
-52.34
 21
27.3981
  0
LINE
  8
0
 10
-52.34
 20
27.3981
 11
-52.0154
 21
27.5427
  0
LINE
  8
0
 10
-52.0154
 20
27.5427
 11
-51.6677
 21
27.6166
  0
LINE
  8
0
 10
-51.6677
 20
27.6166
 11
-51.3123
 21
27.6166
  0
LINE
  8
0
 10
-51.3123
 20
27.6166
 11
-50.9647
 21
27.5427
  0
LINE
  8
0
 10
-50.9647
 20
27.5427
 11
-50.64
 21
27.3981
  0
LINE
  8
0
 10
-50.64
 20
27.3981
 11
-50.3525
 21
27.1892
  0
LINE
  8
0
 10
-50.3525
 20
27.1892
 11
-50.1147
 21
26.9251
  0
LINE
  8
0
 10
-50.1147
 20
26.9251
 11
-49.937
 21
26.6173
  0
LINE
  8
0
 10
-49.937
 20
26.6173
 11
-49.8272
 21
26.2793
  0
LINE
  8
0
 10
-49.8272
 20
26.2793
 11
-49.79
 21
25.9259
  0
LINE
  8
0
 10
-49.79
 20
25.9259
 11
-49.8272
 21
25.5724
  0
LINE
  8
0
 10
-49.8272
 20
25.5724
 11
-49.937
 21
25.2344
  0
LINE
  8
0
 10
-49.937
 20
25.2344
 11
-50.1147
 21
24.9266
  0
LINE
  8
0
 10
-50.1147
 20
24.9266
 11
-50.3525
 21
24.6625
  0
LINE
  8
0
 10
-50.3525
 20
24.6625
 11
-50.64
 21
24.4536
  0
LINE
  8
0
 10
-50.64
 20
24.4536
 11
-50.9647
 21
24.3091
  0
LINE
  8
0
 10
-50.9647
 20
24.3091
 11
-51.3123
 21
24.2352
  0
LINE
  8
0
 10
-51.3123
 20
24.2352
 11
-51.6677
 21
24.2352
  0
LINE
  8
0
 10
-51.6677
 20
24.2352
 11
-52.0154
 21
24.3091
  0
LINE
  8
0
 10
-52.0154
 20
24.3091
 11
-52.34
 21
24.4536
  0
LINE
  8
0
 10
-52.34
 20
24.4536
 11
-52.6276
 21
24.6625
  0
LINE
  8
0
 10
-52.6276
 20
24.6625
 11
-52.8654
 21
24.9266
  0
LINE
  8
0
 10
-52.8654
 20
24.9266
 11
-53.0431
 21
25.2344
  0
LINE
  8
0
 10
-53.0431
 20
25.2344
 11
-53.1529
 21
25.5724
  0
LINE
  8
0
 10
-53.1529
 20
25.5724
 11
-53.19
 21
25.9259
  0
LINE
  8
0
 10
-7.34303
 20
-38.7866
 11
-7.30588
 21
-38.4331
  0
LINE
  8
0
 10
-7.30588
 20
-38.4331
 11
-7.19606
 21
-38.0951
  0
LINE
  8
0
 10
-7.19606
 20
-38.0951
 11
-7.01836
 21
-37.7873
  0
LINE
  8
0
 10
-7.01836
 20
-37.7873
 11
-6.78055
 21
-37.5232
  0
LINE
  8
0
 10
-6.78055
 20
-37.5232
 11
-6.49303
 21
-37.3143
  0
LINE
  8
0
 10
-6.49303
 20
-37.3143
 11
-6.16836
 21
-37.1698
  0
LINE
  8
0
 10
-6.16836
 20
-37.1698
 11
-5.82073
 21
-37.0959
  0
LINE
  8
0
 10
-5.82073
 20
-37.0959
 11
-5.46533
 21
-37.0959
  0
LINE
  8
0
 10
-5.46533
 20
-37.0959
 11
-5.1177
 21
-37.1698
  0
LINE
  8
0
 10
-5.1177
 20
-37.1698
 11
-4.79303
 21
-37.3143
  0
LINE
  8
0
 10
-4.79303
 20
-37.3143
 11
-4.50551
 21
-37.5232
  0
LINE
  8
0
 10
-4.50551
 20
-37.5232
 11
-4.2677
 21
-37.7873
  0
LINE
  8
0
 10
-4.2677
 20
-37.7873
 11
-4.09
 21
-38.0951
  0
LINE
  8
0
 10
-4.09
 20
-38.0951
 11
-3.98018
 21
-38.4331
  0
LINE
  8
0
 10
-3.98018
 20
-38.4331
 11
-3.94303
 21
-38.7866
  0
LINE
  8
0
 10
-3.94303
 20
-38.7866
 11
-3.98018
 21
-39.14
  0
LINE
  8
0
 10
-3.98018
 20
-39.14
 11
-4.09
 21
-39.478
  0
LINE
  8
0
 10
-4.09
 20
-39.478
 11
-4.2677
 21
-39.7858
  0
LINE
  8
0
 10
-4.2677
 20
-39.7858
 11
-4.50551
 21
-40.0499
  0
LINE
  8
0
 10
-4.50551
 20
-40.0499
 11
-4.79303
 21
-40.2588
  0
LINE
  8
0
 10
-4.79303
 20
-40.2588
 11
-5.1177
 21
-40.4034
  0
LINE
  8
0
 10
-5.1177
 20
-40.4034
 11
-5.46533
 21
-40.4773
  0
LINE
  8
0
 10
-5.46533
 20
-40.4773
 11
-5.82073
 21
-40.4773
  0
LINE
  8
0
 10
-5.82073
 20
-40.4773
 11
-6.16836
 21
-40.4034
  0
LINE
  8
0
 10
-6.16836
 20
-40.4034
 11
-6.49303
 21
-40.2588
  0
LINE
  8
0
 10
-6.49303
 20
-40.2588
 11
-6.78055
 21
-40.0499
  0
LINE
  8
0
 10
-6.78055
 20
-40.0499
 11
-7.01836
 21
-39.7858
  0
LINE
  8
0
 10
-7.01836
 20
-39.7858
 11
-7.19606
 21
-39.478
  0
LINE
  8
0
 10
-7.19606
 20
-39.478
 11
-7.30588
 21
-39.14
  0
LINE
  8
0
 10
-7.30588
 20
-39.14
 11
-7.34303
 21
-38.7866
  0
LINE
  8
0
 10
-7.11292
 20
36.1778
 11
-7.07577
 21
36.5312
  0
LINE
  8
0
 10
-7.07577
 20
36.5312
 11
-6.96594
 21
36.8692
  0
LINE
  8
0
 10
-6.96594
 20
36.8692
 11
-6.78824
 21
37.177
  0
LINE
  8
0
 10
-6.78824
 20
37.177
 11
-6.55044
 21
37.4411
  0
LINE
  8
0
 10
-6.55044
 20
37.4411
 11
-6.26292
 21
37.65
  0
LINE
  8
0
 10
-6.26292
 20
37.65
 11
-5.93825
 21
37.7946
  0
LINE
  8
0
 10
-5.93825
 20
37.7946
 11
-5.59061
 21
37.8685
  0
LINE
  8
0
 10
-5.59061
 20
37.8685
 11
-5.23522
 21
37.8685
  0
LINE
  8
0
 10
-5.23522
 20
37.8685
 11
-4.88759
 21
37.7946
  0
LINE
  8
0
 10
-4.88759
 20
37.7946
 11
-4.56292
 21
37.65
  0
LINE
  8
0
 10
-4.56292
 20
37.65
 11
-4.27539
 21
37.4411
  0
LINE
  8
0
 10
-4.27539
 20
37.4411
 11
-4.03759
 21
37.177
  0
LINE
  8
0
 10
-4.03759
 20
37.177
 11
-3.85989
 21
36.8692
  0
LINE
  8
0
 10
-3.85989
 20
36.8692
 11
-3.75007
 21
36.5312
  0
LINE
  8
0
 10
-3.75007
 20
36.5312
 11
-3.71292
 21
36.1778
  0
LINE
  8
0
 10
-3.71292
 20
36.1778
 11
-3.75007
 21
35.8243
  0
LINE
  8
0
 10
-3.75007
 20
35.8243
 11
-3.85989
 21
35.4863
  0
LINE
  8
0
 10
-3.85989
 20
35.4863
 11
-4.03759
 21
35.1785
  0
LINE
  8
0
 10
-4.03759
 20
35.1785
 11
-4.27539
 21
34.9144
  0
LINE
  8
0
 10
-4.27539
 20
34.9144
 11
-4.56292
 21
34.7055
  0
LINE
  8
0
 10
-4.56292
 20
34.7055
 11
-4.88759
 21
34.561
  0
LINE
  8
0
 10
-4.88759
 20
34.561
 11
-5.23522
 21
34.4871
  0
LINE
  8
0
 10
-5.23522
 20
34.4871
 11
-5.59061
 21
34.4871
  0
LINE
  8
0
 10
-5.59061
 20
34.4871
 11
-5.93825
 21
34.561
  0
LINE
  8
0
 10
-5.93825
 20
34.561
 11
-6.26292
 21
34.7055
  0
LINE
  8
0
 10
-6.26292
 20
34.7055
 11
-6.55044
 21
34.9144
  0
LINE
  8
0
 10
-6.55044
 20
34.9144
 11
-6.78824
 21
35.1785
  0
LINE
  8
0
 10
-6.78824
 20
35.1785
 11
-6.96594
 21
35.4863
  0
LINE
  8
0
 10
-6.96594
 20
35.4863
 11
-7.07577
 21
35.8243
  0
LINE
  8
0
 10
-7.07577
 20
35.8243
 11
-7.11292
 21
36.1778
  0
LINE
  8
0
 10
-3.74613
 20
-35.4399
 11
-3.58389
 21
-35.4399
  0
LINE
  8
0
 10
-3.58389
 20
-35.4399
 11
-3.56734
 21
-35.5619
  0
LINE
  8
0
 10
-3.56734
 20
-35.5619
 11
-3.71803
 21
-35.4524
  0
LINE
  8
0
 10
-3.71803
 20
-35.4524
 11
-3.74613
 21
-35.4399
  0
LINE
  8
0
 10
69.839
 20
-54.4709
 11
69.8761
 21
-54.1175
  0
LINE
  8
0
 10
69.8761
 20
-54.1175
 11
69.986
 21
-53.7795
  0
LINE
  8
0
 10
69.986
 20
-53.7795
 11
70.1637
 21
-53.4717
  0
LINE
  8
0
 10
70.1637
 20
-53.4717
 11
70.4015
 21
-53.2076
  0
LINE
  8
0
 10
70.4015
 20
-53.2076
 11
70.689
 21
-52.9987
  0
LINE
  8
0
 10
70.689
 20
-52.9987
 11
71.0137
 21
-52.8542
  0
LINE
  8
0
 10
71.0137
 20
-52.8542
 11
71.3613
 21
-52.7803
  0
LINE
  8
0
 10
71.3613
 20
-52.7803
 11
71.7167
 21
-52.7803
  0
LINE
  8
0
 10
71.7167
 20
-52.7803
 11
72.0643
 21
-52.8542
  0
LINE
  8
0
 10
72.0643
 20
-52.8542
 11
72.389
 21
-52.9987
  0
LINE
  8
0
 10
72.389
 20
-52.9987
 11
72.6765
 21
-53.2076
  0
LINE
  8
0
 10
72.6765
 20
-53.2076
 11
72.9143
 21
-53.4717
  0
LINE
  8
0
 10
72.9143
 20
-53.4717
 11
73.092
 21
-53.7795
  0
LINE
  8
0
 10
73.092
 20
-53.7795
 11
73.2018
 21
-54.1175
  0
LINE
  8
0
 10
73.2018
 20
-54.1175
 11
73.239
 21
-54.4709
  0
LINE
  8
0
 10
73.239
 20
-54.4709
 11
73.2018
 21
-54.8244
  0
LINE
  8
0
 10
73.2018
 20
-54.8244
 11
73.092
 21
-55.1624
  0
LINE
  8
0
 10
73.092
 20
-55.1624
 11
72.9143
 21
-55.4702
  0
LINE
  8
0
 10
72.9143
 20
-55.4702
 11
72.6765
 21
-55.7343
  0
LINE
  8
0
 10
72.6765
 20
-55.7343
 11
72.389
 21
-55.9432
  0
LINE
  8
0
 10
72.389
 20
-55.9432
 11
72.0643
 21
-56.0877
  0
LINE
  8
0
 10
72.0643
 20
-56.0877
 11
71.7167
 21
-56.1616
  0
LINE
  8
0
 10
71.7167
 20
-56.1616
 11
71.3613
 21
-56.1616
  0
LINE
  8
0
 10
71.3613
 20
-56.1616
 11
71.0137
 21
-56.0877
  0
LINE
  8
0
 10
71.0137
 20
-56.0877
 11
70.689
 21
-55.9432
  0
LINE
  8
0
 10
70.689
 20
-55.9432
 11
70.4015
 21
-55.7343
  0
LINE
  8
0
 10
70.4015
 20
-55.7343
 11
70.1637
 21
-55.4702
  0
LINE
  8
0
 10
70.1637
 20
-55.4702
 11
69.986
 21
-55.1624
  0
LINE
  8
0
 10
69.986
 20
-55.1624
 11
69.8761
 21
-54.8244
  0
LINE
  8
0
 10
69.8761
 20
-54.8244
 11
69.839
 21
-54.4709
  0
LINE
  8
0
 10
69.839
 20
10.4709
 11
69.8761
 21
10.8244
  0
LINE
  8
0
 10
69.8761
 20
10.8244
 11
69.986
 21
11.1624
  0
LINE
  8
0
 10
69.986
 20
11.1624
 11
70.1637
 21
11.4702
  0
LINE
  8
0
 10
70.1637
 20
11.4702
 11
70.4015
 21
11.7343
  0
LINE
  8
0
 10
70.4015
 20
11.7343
 11
70.689
 21
11.9432
  0
LINE
  8
0
 10
70.689
 20
11.9432
 11
71.0137
 21
12.0877
  0
LINE
  8
0
 10
71.0137
 20
12.0877
 11
71.3613
 21
12.1616
  0
LINE
  8
0
 10
71.3613
 20
12.1616
 11
71.7167
 21
12.1616
  0
LINE
  8
0
 10
71.7167
 20
12.1616
 11
72.0643
 21
12.0877
  0
LINE
  8
0
 10
72.0643
 20
12.0877
 11
72.389
 21
11.9432
  0
LINE
  8
0
 10
72.389
 20
11.9432
 11
72.6765
 21
11.7343
  0
LINE
  8
0
 10
72.6765
 20
11.7343
 11
72.9143
 21
11.4702
  0
LINE
  8
0
 10
72.9143
 20
11.4702
 11
73.092
 21
11.1624
  0
LINE
  8
0
 10
73.092
 20
11.1624
 11
73.2018
 21
10.8244
  0
LINE
  8
0
 10
73.2018
 20
10.8244
 11
73.239
 21
10.4709
  0
LINE
  8
0
 10
73.239
 20
10.4709
 11
73.2018
 21
10.1175
  0
LINE
  8
0
 10
73.2018
 20
10.1175
 11
73.092
 21
9.7795
  0
LINE
  8
0
 10
73.092
 20
9.7795
 11
72.9143
 21
9.47172
  0
LINE
  8
0
 10
72.9143
 20
9.47172
 11
72.6765
 21
9.2076
  0
LINE
  8
0
 10
72.6765
 20
9.2076
 11
72.389
 21
8.99871
  0
LINE
  8
0
 10
72.389
 20
8.99871
 11
72.0643
 21
8.85415
  0
LINE
  8
0
 10
72.0643
 20
8.85415
 11
71.7167
 21
8.78026
  0
LINE
  8
0
 10
71.7167
 20
8.78026
 11
71.3613
 21
8.78026
  0
LINE
  8
0
 10
71.3613
 20
8.78026
 11
71.0137
 21
8.85415
  0
LINE
  8
0
 10
71.0137
 20
8.85415
 11
70.689
 21
8.99871
  0
LINE
  8
0
 10
70.689
 20
8.99871
 11
70.4015
 21
9.2076
  0
LINE
  8
0
 10
70.4015
 20
9.2076
 11
70.1637
 21
9.47172
  0
LINE
  8
0
 10
70.1637
 20
9.47172
 11
69.986
 21
9.7795
  0
LINE
  8
0
 10
69.986
 20
9.7795
 11
69.8761
 21
10.1175
  0
LINE
  8
0
 10
69.8761
 20
10.1175
 11
69.839
 21
10.4709
  0
ENDSEC
  0
SECTION
  2
OBJECTS
  0
DICTIONARY
  0
ENDSEC
  0
EOF
