solid Untitled Scene
  facet normal 0.9961947338493561 -0.000004088568486387078 0.08715533393943473
    outer loop
      vertex 102.42842149734497 49.32124328613281 1.0009354456386177e-15
      vertex 100.03451156616211 49.83713150024414 27.362669250462204
      vertex 102.42823123931885 2.9641761779785156 3.8398104140746625e-15
    endloop
  endfacet
  facet normal 0.21066184614988057 0.9775589939112237 0
    outer loop
      vertex 99.8820013999939 49.869991302490234 9.675420187260642e-16
      vertex 99.8820013999939 49.869991302490234 27.340000411961228
      vertex 102.42842149734497 49.32124328613281 1.0009354456386177e-15
    endloop
  endfacet
  facet normal -8.306749567608943e-20 -6.123931322075429e-17 -1
    outer loop
      vertex 99.8820013999939 49.869991302490234 9.675420187260642e-16
      vertex 102.42842149734497 49.32124328613281 1.0009354456386177e-15
      vertex 102.42823123931885 2.9641761779785156 3.8398104140746625e-15
    endloop
  endfacet
  facet normal 0.2106267538605344 0.9775665555584825 -0.000003420232203216645
    outer loop
      vertex 100.03451156616211 49.83713150024414 27.362669250462204
      vertex 102.42842149734497 49.32124328613281 1.0009354456386177e-15
      vertex 99.8820013999939 49.869991302490234 27.340000411961228
    endloop
  endfacet
  facet normal 0.9961942884020311 -0.0000047798938005569565 0.08716042526470161
    outer loop
      vertex 100.59000158309937 0 21.01099993893877
      vertex 100.03451156616211 49.83713150024414 27.362669250462204
      vertex 100.03121137619019 49.87965393066406 27.400390884373337
    endloop
  endfacet
  facet normal 0.996194726718077 -0.000004136514544473889 0.08715541544841159
    outer loop
      vertex 100.59000158309937 0 21.01099993893877
      vertex 102.42823123931885 2.9641761779785156 3.8398104140746625e-15
      vertex 100.03451156616211 49.83713150024414 27.362669250462204
    endloop
  endfacet
  facet normal 0.24715943248883787 0.6536911191241037 -0.7152622845572613
    outer loop
      vertex 100.03451156616211 49.83713150024414 27.362669250462204
      vertex 99.8820013999939 49.869991302490234 27.340000411961228
      vertex 100.03121137619019 49.87965393066406 27.400390884373337
    endloop
  endfacet
  facet normal 0.01213030054159745 -0.9902681138329472 -0.1386431337445452
    outer loop
      vertex 102.42823123931885 2.9641761779785156 3.8398104140746625e-15
      vertex 100.59000158309937 0 21.01099993893877
      vertex 2.045684814453125 1.7345390319824219 3.9148372044106594e-15
    endloop
  endfacet
  facet normal 2.6859250820668077e-21 -6.123465819198698e-17 -1
    outer loop
      vertex 2.045684814453125 1.7345390319824219 3.9148372044106594e-15
      vertex 99.8820013999939 49.869991302490234 9.675420187260642e-16
      vertex 102.42823123931885 2.9641761779785156 3.8398104140746625e-15
    endloop
  endfacet
  facet normal 0.9922475931374963 0.12427676336647032 0
    outer loop
      vertex 99.8820013999939 49.869991302490234 9.675420187260642e-16
      vertex 98.55500149726868 60.46499252319336 3.187554387107383e-16
      vertex 99.8820013999939 49.869991302490234 27.340000411961228
    endloop
  endfacet
  facet normal 5.550054220907513e-22 -6.123032705307298e-17 -1
    outer loop
      vertex 81.80200099945068 63.744991302490234 1.1796119636642288e-16
      vertex 99.8820013999939 49.869991302490234 9.675420187260642e-16
      vertex 2.045684814453125 1.7345390319824219 3.9148372044106594e-15
    endloop
  endfacet
  facet normal -3.488093637955863e-21 -6.123559546623514e-17 -0.9999999999999999
    outer loop
      vertex 98.55500149726868 60.46499252319336 3.187554387107383e-16
      vertex 99.8820013999939 49.869991302490234 9.675420187260642e-16
      vertex 81.80200099945068 63.744991302490234 1.1796119636642288e-16
    endloop
  endfacet
  facet normal 0.24715730826301108 0.653696689767127 -0.7152579274357493
    outer loop
      vertex 99.9695315361023 50.674442291259766 28.105459472630173
      vertex 100.03121137619019 49.87965393066406 27.400390884373337
      vertex 99.8820013999939 49.869991302490234 27.340000411961228
    endloop
  endfacet
  facet normal 0.24732027598533013 0.6536585352347329 -0.7152364646753713
    outer loop
      vertex 99.9695315361023 50.674442291259766 28.105459472630173
      vertex 99.8820013999939 49.869991302490234 27.340000411961228
      vertex 99.94361138343811 50.683101654052734 28.104410430882126
    endloop
  endfacet
  facet normal 0.9922475931374962 0.12427676336647032 0
    outer loop
      vertex 98.55500149726868 60.46499252319336 27.882999679539353
      vertex 99.8820013999939 49.869991302490234 27.340000411961228
      vertex 98.55500149726868 60.46499252319336 3.187554387107383e-16
    endloop
  endfacet
  facet normal 0.9667950131579082 0.1322945448177447 -0.21864481687079992
    outer loop
      vertex 99.94361138343811 50.683101654052734 28.104410430882126
      vertex 99.8820013999939 49.869991302490234 27.340000411961228
      vertex 98.55500149726868 60.46499252319336 27.882999679539353
    endloop
  endfacet
  facet normal 0.9961950331625691 -0.0000036811248081677206 0.0871519127080809
    outer loop
      vertex 100.59000158309937 0 21.01099993893877
      vertex 100.03121137619019 49.87965393066406 27.400390884373337
      vertex 99.9695315361023 50.674442291259766 28.105459472630173
    endloop
  endfacet
  facet normal -0.08631134100520023 -0.13916752973989596 0.9865002539685325
    outer loop
      vertex 0.970001220703125 0 12.295000335667286
      vertex 100.59000158309937 0 21.01099993893877
      vertex 99.94361138343811 50.683101654052734 28.104410430882126
    endloop
  endfacet
  facet normal -0.08641819137291312 -0.13916758221660902 0.9864908921322173
    outer loop
      vertex 99.9695315361023 50.674442291259766 28.105459472630173
      vertex 99.94361138343811 50.683101654052734 28.104410430882126
      vertex 100.59000158309937 0 21.01099993893877
    endloop
  endfacet
  facet normal 0.012130181560889373 -0.9902681925089505 -0.138642582204589
    outer loop
      vertex 0.970001220703125 0 12.295000335667286
      vertex 2.045684814453125 1.7345390319824219 3.9148372044106594e-15
      vertex 100.59000158309937 0 21.01099993893877
    endloop
  endfacet
  facet normal -0.9961947365459207 0.000004045463724461623 -0.08715530311942045
    outer loop
      vertex 0 79.22099304199219 23.385999938938767
      vertex 2.0460128784179688 82.52023315429688 -1.031726787337206e-15
      vertex 2.045684814453125 1.7345390319824219 3.9148372044106594e-15
    endloop
  endfacet
  facet normal -0.9961946766947845 0.00000425350813137246 -0.08715598721190526
    outer loop
      vertex 0 79.22099304199219 23.385999938938767
      vertex 2.045684814453125 1.7345390319824219 3.9148372044106594e-15
      vertex 0.970001220703125 0 12.295000335667286
    endloop
  endfacet
  facet normal 2.1750680735560125e-21 -6.12306924660699e-17 -0.9999999999999999
    outer loop
      vertex 2.0460128784179688 82.52023315429688 -1.031726787337206e-15
      vertex 21.214004516601562 81.58599281311035 -9.744809126299714e-16
      vertex 2.045684814453125 1.7345390319824219 3.9148372044106594e-15
    endloop
  endfacet
  facet normal -3.6373391231518596e-20 -6.122143891892709e-17 -1
    outer loop
      vertex 28.02899932861328 74.8239917755127 -5.607493636095029e-16
      vertex 2.045684814453125 1.7345390319824219 3.9148372044106594e-15
      vertex 21.214004516601562 81.58599281311035 -9.744809126299714e-16
    endloop
  endfacet
  facet normal -5.963438789450147e-21 -6.122406930874265e-17 -1
    outer loop
      vertex 76.2490005493164 71.93899154663086 -3.8380756905986857e-16
      vertex 78.60648155212402 68.46076202392578 -1.708702623837155e-16
      vertex 2.045684814453125 1.7345390319824219 3.9148372044106594e-15
    endloop
  endfacet
  facet normal -3.3579012417443316e-17 -2.270279141430916e-17 -1
    outer loop
      vertex 78.60771179199219 68.45894241333008 -1.708702623837155e-16
      vertex 2.045684814453125 1.7345390319824219 3.9148372044106594e-15
      vertex 78.60648155212402 68.46076202392578 -1.708702623837155e-16
    endloop
  endfacet
  facet normal 2.1394620576700537e-20 -6.125713045273524e-17 -0.9999999999999999
    outer loop
      vertex 81.80200099945068 63.744991302490234 1.1796119636642288e-16
      vertex 2.045684814453125 1.7345390319824219 3.9148372044106594e-15
      vertex 78.60771179199219 68.45894241333008 -1.708702623837155e-16
    endloop
  endfacet
  facet normal 0 -6.123436966650884e-17 -0.9999999999999999
    outer loop
      vertex 28.02899932861328 74.8239917755127 -5.607493636095029e-16
      vertex 45.50400161743164 74.8239917755127 -5.607493636095029e-16
      vertex 2.045684814453125 1.7345390319824219 3.9148372044106594e-15
    endloop
  endfacet
  facet normal 8.645121504260845e-21 -6.123950997629405e-17 -1
    outer loop
      vertex 76.2490005493164 71.93899154663086 -3.8380756905986857e-16
      vertex 2.045684814453125 1.7345390319824219 3.9148372044106594e-15
      vertex 45.50400161743164 74.8239917755127 -5.607493636095029e-16
    endloop
  endfacet
  facet normal 0.19213785978212428 0.9813679446763812 0
    outer loop
      vertex 98.55500149726868 60.46499252319336 27.882999679539353
      vertex 98.55500149726868 60.46499252319336 3.187554387107383e-16
      vertex 81.80200099945068 63.744991302490234 26.874000808689743
    endloop
  endfacet
  facet normal 0.19213785978212466 0.9813679446763813 0
    outer loop
      vertex 81.80200099945068 63.744991302490234 26.874000808689743
      vertex 98.55500149726868 60.46499252319336 3.187554387107383e-16
      vertex 81.80200099945068 63.744991302490234 1.1796119636642288e-16
    endloop
  endfacet
  facet normal 0.8278397891228175 0.5609646009732602 0
    outer loop
      vertex 78.60771179199219 68.45894241333008 -1.708702623837155e-16
      vertex 81.80200099945068 63.744991302490234 26.874000808689743
      vertex 81.80200099945068 63.744991302490234 1.1796119636642288e-16
    endloop
  endfacet
  facet normal -0.08631085166800613 -0.13916845782889506 0.9865001658539497
    outer loop
      vertex 99.94361138343811 50.683101654052734 28.104410430882126
      vertex 99.10414147377014 58.52469253540039 29.137199661228806
      vertex 0.970001220703125 0 12.295000335667286
    endloop
  endfacet
  facet normal 0.9667966734606839 0.13229495226523622 -0.21863722873859917
    outer loop
      vertex 99.10414147377014 58.52469253540039 29.137199661228806
      vertex 99.94361138343811 50.683101654052734 28.104410430882126
      vertex 98.55500149726868 60.46499252319336 27.882999679539353
    endloop
  endfacet
  facet normal 0.9614884898971525 0.10903967550795166 -0.2522899779230512
    outer loop
      vertex 99.10414147377014 58.52469253540039 29.137199661228806
      vertex 98.55500149726868 60.46499252319336 27.882999679539353
      vertex 98.80869150161743 62.303531646728516 29.644439956638962
    endloop
  endfacet
  facet normal 0.17443126422978356 0.668540412046812 -0.722929769424028
    outer loop
      vertex 81.80200099945068 63.744991302490234 26.874000808689743
      vertex 88.7654218673706 64.27442169189453 29.043760559055954
      vertex 98.55500149726868 60.46499252319336 27.882999679539353
    endloop
  endfacet
  facet normal 0.1744324001762294 0.6685426243321901 -0.7229274494856229
    outer loop
      vertex 98.80869150161743 62.303531646728516 29.644439956638962
      vertex 98.55500149726868 60.46499252319336 27.882999679539353
      vertex 88.7654218673706 64.27442169189453 29.043760559055954
    endloop
  endfacet
  facet normal -0.08631020359191931 -0.13916882755150392 0.9865001703972794
    outer loop
      vertex 78.48507118225098 71.33004188537598 29.139660140965134
      vertex 0.970001220703125 0 12.295000335667286
      vertex 79.15760231018066 70.24967193603516 29.04608943173662
    endloop
  endfacet
  facet normal -0.08631201584775747 -0.13916683958260095 0.9865002922862653
    outer loop
      vertex 82.05676174163818 65.59049224853516 28.642469665501267
      vertex 79.15760231018066 70.24967193603516 29.04608943173662
      vertex 0.970001220703125 0 12.295000335667286
    endloop
  endfacet
  facet normal -0.08631158988816949 -0.13916734190038588 0.9865002586919871
    outer loop
      vertex 64.77099990844727 79.22099304199219 29.052969238255173
      vertex 0.970001220703125 0 12.295000335667286
      vertex 78.48507118225098 71.33004188537598 29.139660140965134
    endloop
  endfacet
  facet normal -0.08631160866033809 -0.13916721970983312 0.9865002742871893
    outer loop
      vertex 88.7654218673706 64.27442169189453 29.043760559055954
      vertex 0.970001220703125 0 12.295000335667286
      vertex 99.10414147377014 58.52469253540039 29.137199661228806
    endloop
  endfacet
  facet normal -0.08631068460596128 -0.13916845748439097 0.9865001805191246
    outer loop
      vertex 88.7654218673706 64.27442169189453 29.043760559055954
      vertex 82.05676174163818 65.59049224853516 28.642469665501267
      vertex 0.970001220703125 0 12.295000335667286
    endloop
  endfacet
  facet normal -0.08631126029091496 -0.13916760557471028 0.986500250332252
    outer loop
      vertex 0 79.22099304199219 23.385999938938767
      vertex 0.970001220703125 0 12.295000335667286
      vertex 64.77099990844727 79.22099304199219 29.052969238255173
    endloop
  endfacet
  facet normal -0.012130450414186787 0.9902681545046141 0.13864283013114834
    outer loop
      vertex 27.503273010253906 80.80144309997559 14.503879806492476
      vertex 22.196517944335938 81.31113243103027 10.399070045445113
      vertex 0 79.22099304199219 23.385999938938767
    endloop
  endfacet
  facet normal -0.012130246019901664 0.990268070491431 0.13864344808419365
    outer loop
      vertex 0 79.22099304199219 23.385999938938767
      vertex 64.77099990844727 79.22099304199219 29.052969238255173
      vertex 27.503273010253906 80.80144309997559 14.503879806492476
    endloop
  endfacet
  facet normal -0.012129464197414655 0.990267935526764 0.13864448047377934
    outer loop
      vertex 22.196517944335938 81.31113243103027 10.399070045445113
      vertex 21.14598846435547 81.79425239562988 6.856479904148727
      vertex 0 79.22099304199219 23.385999938938767
    endloop
  endfacet
  facet normal -0.012130368618306006 0.9902680832186711 0.13864334645269982
    outer loop
      vertex 2.0460128784179688 82.52023315429688 -1.031726787337206e-15
      vertex 0 79.22099304199219 23.385999938938767
      vertex 21.14598846435547 81.79425239562988 6.856479904148727
    endloop
  endfacet
  facet normal -0.012130302744269995 0.9902681093301581 0.138643165713303
    outer loop
      vertex 20.875999450683594 82.62099266052246 0.9278099746443321
      vertex 2.0460128784179688 82.52023315429688 -1.031726787337206e-15
      vertex 21.14598846435547 81.79425239562988 6.856479904148727
    endloop
  endfacet
  facet normal -0.012130519014137803 0.9902674826267361 0.13864762298919683
    outer loop
      vertex 20.8790283203125 82.75093269348145 -1.0460382560140147e-15
      vertex 2.0460128784179688 82.52023315429688 -1.031726787337206e-15
      vertex 20.875999450683594 82.62099266052246 0.9278099746443321
    endloop
  endfacet
  facet normal 4.906794186724485e-21 -6.117464510760482e-17 -1
    outer loop
      vertex 2.0460128784179688 82.52023315429688 -1.031726787337206e-15
      vertex 20.875999450683594 82.62099266052246 -1.0377983195031248e-15
      vertex 21.214004516601562 81.58599281311035 -9.744809126299714e-16
    endloop
  endfacet
  facet normal 1.688839333053768e-20 -6.341377230704898e-17 -1
    outer loop
      vertex 20.8790283203125 82.75093269348145 -1.0460382560140147e-15
      vertex 20.875999450683594 82.62099266052246 -1.0377983195031248e-15
      vertex 2.0460128784179688 82.52023315429688 -1.031726787337206e-15
    endloop
  endfacet
  facet normal 0.9505930078622269 0.310439903046378 0
    outer loop
      vertex 20.875999450683594 82.62099266052246 -1.0377983195031248e-15
      vertex 20.875999450683594 82.62099266052246 0.9278099746443321
      vertex 21.214004516601562 81.58599281311035 -9.744809126299714e-16
    endloop
  endfacet
  facet normal 0.9505930078622269 0.3104399030463773 0
    outer loop
      vertex 21.214004516601562 81.58599281311035 6.082000038120895
      vertex 21.214004516601562 81.58599281311035 -9.744809126299714e-16
      vertex 20.875999450683594 82.62099266052246 0.9278099746443321
    endloop
  endfacet
  facet normal 0.7043414343965932 0.7098613553308487 0
    outer loop
      vertex 28.02899932861328 74.8239917755127 -5.607493636095029e-16
      vertex 21.214004516601562 81.58599281311035 -9.744809126299714e-16
      vertex 21.214004516601562 81.58599281311035 6.082000038120895
    endloop
  endfacet
  facet normal 0.7043414343965937 0.7098613553308483 0
    outer loop
      vertex 28.02899932861328 74.8239917755127 -5.607493636095029e-16
      vertex 21.214004516601562 81.58599281311035 6.082000038120895
      vertex 28.02899932861328 74.8239917755127 8.496999999973923
    endloop
  endfacet
  facet normal 0 1 0
    outer loop
      vertex 28.02899932861328 74.8239917755127 -5.607493636095029e-16
      vertex 45.16400146484375 74.8239917755127 7.966260215733199
      vertex 45.50400161743164 74.8239917755127 -5.607493636095029e-16
    endloop
  endfacet
  facet normal 0 1 0
    outer loop
      vertex 28.02899932861328 74.8239917755127 8.496999999973923
      vertex 45.16400146484375 74.8239917755127 7.966260215733199
      vertex 28.02899932861328 74.8239917755127 -5.607493636095029e-16
    endloop
  endfacet
  facet normal 9.367668899439892e-21 -6.122970104895799e-17 -1
    outer loop
      vertex 78.44158172607422 83.4560432434082 -1.0889726620444407e-15
      vertex 76.2490005493164 71.93899154663086 -3.8380756905986857e-16
      vertex 49.165382385253906 83.09742164611816 -1.0672886185947306e-15
    endloop
  endfacet
  facet normal 9.62391924307569e-21 -6.122907908095716e-17 -1
    outer loop
      vertex 45.50400161743164 74.8239917755127 -5.607493636095029e-16
      vertex 49.165382385253906 83.09742164611816 -1.0672886185947306e-15
      vertex 76.2490005493164 71.93899154663086 -3.8380756905986857e-16
    endloop
  endfacet
  facet normal 0.827779315367605 0.5610538343595375 0
    outer loop
      vertex 76.2490005493164 71.93899154663086 27.062999984715134
      vertex 78.60648155212402 68.46076202392578 -1.708702623837155e-16
      vertex 76.2490005493164 71.93899154663086 -3.8380756905986857e-16
    endloop
  endfacet
  facet normal 0.9823564811905772 -0.18701803084961335 0
    outer loop
      vertex 76.2490005493164 71.93899154663086 -3.8380756905986857e-16
      vertex 78.44158172607422 83.4560432434082 -1.0889726620444407e-15
      vertex 76.2490005493164 71.93899154663086 27.062999984715134
    endloop
  endfacet
  facet normal 0.8284256107360138 0.5600990764434115 0.00017900810092000134
    outer loop
      vertex 78.60648155212402 68.46076202392578 -1.708702623837155e-16
      vertex 76.2490005493164 71.93899154663086 27.062999984715134
      vertex 78.60771179199219 68.45894241333008 -1.708702623837155e-16
    endloop
  endfacet
  facet normal 0.8278143520029949 0.5610021377192352 0.000009607795450210847
    outer loop
      vertex 81.80200099945068 63.744991302490234 26.874000808689743
      vertex 78.60771179199219 68.45894241333008 -1.708702623837155e-16
      vertex 76.2490005493164 71.93899154663086 27.062999984715134
    endloop
  endfacet
  facet normal -0.9144543971194026 0.40468896153445527 -0.0000010743630304697428
    outer loop
      vertex 49.165382385253906 83.09742164611816 -1.0672886185947306e-15
      vertex 45.50400161743164 74.8239917755127 -5.607493636095029e-16
      vertex 48.86165237426758 82.41111183166504 4.875429889652877
    endloop
  endfacet
  facet normal -0.9144546526077708 0.4046883842217383 0
    outer loop
      vertex 45.50400161743164 74.8239917755127 7.99600007245317
      vertex 48.86165237426758 82.41111183166504 4.875429889652877
      vertex 45.50400161743164 74.8239917755127 -5.607493636095029e-16
    endloop
  endfacet
  facet normal 0 1 0
    outer loop
      vertex 45.50400161743164 74.8239917755127 -5.607493636095029e-16
      vertex 45.16400146484375 74.8239917755127 7.966260215733199
      vertex 45.50400161743164 74.8239917755127 7.99600007245317
    endloop
  endfacet
  facet normal 0.666995301607133 0.4654361772254065 -0.5817958684657445
    outer loop
      vertex 76.2490005493164 71.93899154663086 27.062999984715134
      vertex 79.15760231018066 70.24967193603516 29.04608943173662
      vertex 81.80200099945068 63.744991302490234 26.874000808689743
    endloop
  endfacet
  facet normal 0.17440535681923808 0.6686168928542865 -0.7228652862758272
    outer loop
      vertex 88.7654218673706 64.27442169189453 29.043760559055954
      vertex 81.80200099945068 63.744991302490234 26.874000808689743
      vertex 82.05676174163818 65.59049224853516 28.642469665501267
    endloop
  endfacet
  facet normal 0.6669956220805369 0.46543618322181335 -0.5817954962642012
    outer loop
      vertex 82.05676174163818 65.59049224853516 28.642469665501267
      vertex 81.80200099945068 63.744991302490234 26.874000808689743
      vertex 79.15760231018066 70.24967193603516 29.04608943173662
    endloop
  endfacet
  facet normal -0.08631204489492016 -0.13916800653733608 0.9865001251203577
    outer loop
      vertex 98.80869150161743 62.303531646728516 29.644439956638962
      vertex 88.7654218673706 64.27442169189453 29.043760559055954
      vertex 99.10414147377014 58.52469253540039 29.137199661228806
    endloop
  endfacet
  facet normal -0.08631148392317767 -0.1391671573507517 0.9865002939978732
    outer loop
      vertex 80.6600112915039 79.22099304199219 30.443140289280564
      vertex 64.77099990844727 79.22099304199219 29.052969238255173
      vertex 78.48507118225098 71.33004188537598 29.139660140965134
    endloop
  endfacet
  facet normal 0.6699889143545372 -0.06247111286745137 -0.7397379365012521
    outer loop
      vertex 76.2490005493164 71.93899154663086 27.062999984715134
      vertex 79.93934059143066 79.30453300476074 29.783359786961228
      vertex 78.48507118225098 71.33004188537598 29.139660140965134
    endloop
  endfacet
  facet normal 0.6699922029235675 -0.06247195877899122 -0.7397348865559478
    outer loop
      vertex 80.6600112915039 79.22099304199219 30.443140289280564
      vertex 78.48507118225098 71.33004188537598 29.139660140965134
      vertex 79.93934059143066 79.30453300476074 29.783359786961228
    endloop
  endfacet
  facet normal 0.6669982539495344 0.4655855515482411 -0.5816729522831473
    outer loop
      vertex 79.15760231018066 70.24967193603516 29.04608943173662
      vertex 76.2490005493164 71.93899154663086 27.062999984715134
      vertex 78.48507118225098 71.33004188537598 29.139660140965134
    endloop
  endfacet
  facet normal -0.012131028277183683 0.9902679469366883 0.13864426213419195
    outer loop
      vertex 47.149452209472656 81.45962333679199 11.521689674351363
      vertex 44.63827133178711 80.80146217346191 16.002889892552048
      vertex 64.77099990844727 79.22099304199219 29.052969238255173
    endloop
  endfacet
  facet normal -0.01213019213232506 0.990268050476397 0.13864359575728288
    outer loop
      vertex 78.44158172607422 83.4560432434082 -1.0889726620444407e-15
      vertex 47.89227294921875 81.8109016418457 9.077679893467574
      vertex 64.77099990844727 79.22099304199219 29.052969238255173
    endloop
  endfacet
  facet normal -0.012130130542310429 0.990267462033284 0.13864780406189228
    outer loop
      vertex 64.77099990844727 79.22099304199219 29.052969238255173
      vertex 79.93934059143066 79.30453300476074 29.783359786961228
      vertex 77.70064163208008 79.56407165527344 27.733789703343064
    endloop
  endfacet
  facet normal -0.012131194823201883 0.9902679219062834 0.1386444263415315
    outer loop
      vertex 47.149452209472656 81.45962333679199 11.521689674351363
      vertex 64.77099990844727 79.22099304199219 29.052969238255173
      vertex 47.89227294921875 81.8109016418457 9.077679893467574
    endloop
  endfacet
  facet normal -0.012130595112452135 0.9902680716555086 0.13864340922632445
    outer loop
      vertex 77.70064163208008 79.56407165527344 27.733789703343064
      vertex 78.44158172607422 83.4560432434082 -1.0889726620444407e-15
      vertex 64.77099990844727 79.22099304199219 29.052969238255173
    endloop
  endfacet
  facet normal -0.012129507545602 0.990269310640696 0.13863465457778518
    outer loop
      vertex 64.77099990844727 79.22099304199219 29.052969238255173
      vertex 80.6600112915039 79.22099304199219 30.443140289280564
      vertex 79.93934059143066 79.30453300476074 29.783359786961228
    endloop
  endfacet
  facet normal -0.012129876841850037 0.9902682053594073 0.1386425170792145
    outer loop
      vertex 44.63827133178711 80.80146217346191 16.002889892552048
      vertex 27.503273010253906 80.80144309997559 14.503879806492476
      vertex 64.77099990844727 79.22099304199219 29.052969238255173
    endloop
  endfacet
  facet normal 0.07982301125103304 0.4013222552357065 -0.9124520449466612
    outer loop
      vertex 27.503273010253906 80.80144309997559 14.503879806492476
      vertex 44.63827133178711 80.80146217346191 16.002889892552048
      vertex 27.692001342773438 75.85999298095703 12.34700038144365
    endloop
  endfacet
  facet normal 0.595539344535075 0.3403593972170555 -0.7276595150458598
    outer loop
      vertex 27.503273010253906 80.80144309997559 14.503879806492476
      vertex 27.692001342773438 75.85999298095703 12.34700038144365
      vertex 22.196517944335938 81.31113243103027 10.399070045445113
    endloop
  endfacet
  facet normal 0.7203027350109458 0.6831238909465692 -0.12043969260078397
    outer loop
      vertex 22.196517944335938 81.31113243103027 10.399070045445113
      vertex 27.692001342773438 75.85999298095703 12.34700038144365
      vertex 21.14598846435547 81.79425239562988 6.856479904148727
    endloop
  endfacet
  facet normal 0.9505901693460704 0.3104485946801472 0.0000019314911444725547
    outer loop
      vertex 21.14598846435547 81.79425239562988 6.856479904148727
      vertex 21.214004516601562 81.58599281311035 6.082000038120895
      vertex 20.875999450683594 82.62099266052246 0.9278099746443321
    endloop
  endfacet
  facet normal 0.7203015275150858 0.6831257774483317 -0.12043621400993346
    outer loop
      vertex 21.214004516601562 81.58599281311035 6.082000038120895
      vertex 21.14598846435547 81.79425239562988 6.856479904148727
      vertex 27.692001342773438 75.85999298095703 12.34700038144365
    endloop
  endfacet
  facet normal 0.9997284384458026 -0.023303419549862626 0
    outer loop
      vertex 20.875999450683594 82.62099266052246 0.9278099746443321
      vertex 20.875999450683594 82.62099266052246 -1.0377983195031248e-15
      vertex 20.8790283203125 82.75093269348145 -1.0460382560140147e-15
    endloop
  endfacet
  facet normal 0.7204192674206518 0.6829520899287717 -0.12071670137563469
    outer loop
      vertex 27.692001342773438 75.85999298095703 12.34700038144365
      vertex 28.02899932861328 74.8239917755127 8.496999999973923
      vertex 21.214004516601562 81.58599281311035 6.082000038120895
    endloop
  endfacet
  facet normal 0 1 0
    outer loop
      vertex 45.16400146484375 74.8239917755127 9.995999595616013
      vertex 45.16400146484375 74.8239917755127 7.966260215733199
      vertex 28.02899932861328 74.8239917755127 8.496999999973923
    endloop
  endfacet
  facet normal 0.022564980276631636 0.9658975680922965 -0.2579393525976645
    outer loop
      vertex 45.16400146484375 74.8239917755127 9.995999595616013
      vertex 28.02899932861328 74.8239917755127 8.496999999973923
      vertex 44.82699966430664 75.85999298095703 13.84599997708574
    endloop
  endfacet
  facet normal 0.022564987072937585 0.9658975625220272 -0.25793937286192775
    outer loop
      vertex 27.692001342773438 75.85999298095703 12.34700038144365
      vertex 44.82699966430664 75.85999298095703 13.84599997708574
      vertex 28.02899932861328 74.8239917755127 8.496999999973923
    endloop
  endfacet
  facet normal -0.9144536337303116 0.40469068652172996 0
    outer loop
      vertex 45.16400146484375 74.8239917755127 7.966260215733199
      vertex 45.16400146484375 74.8239917755127 9.995999595616013
      vertex 45.359962463378906 75.26679229736328 9.641550323460251
    endloop
  endfacet
  facet normal 0.022561889748066034 0.9658979404832256 -0.2579382284603412
    outer loop
      vertex 45.359962463378906 75.26679229736328 9.641550323460251
      vertex 45.50400161743164 74.8239917755127 7.99600007245317
      vertex 45.16400146484375 74.8239917755127 7.966260215733199
    endloop
  endfacet
  facet normal -0.012131532116527219 0.9902686501893335 0.13863919496556967
    outer loop
      vertex 48.38743209838867 82.10782241821289 7.0001700134016565
      vertex 47.89227294921875 81.8109016418457 9.077679893467574
      vertex 78.44158172607422 83.4560432434082 -1.0889726620444407e-15
    endloop
  endfacet
  facet normal -0.012130383224689258 0.9902680709977679 0.13864343246321506
    outer loop
      vertex 78.44158172607422 83.4560432434082 -1.0889726620444407e-15
      vertex 49.165382385253906 83.09742164611816 -1.0672886185947306e-15
      vertex 48.86165237426758 82.41111183166504 4.875429889652877
    endloop
  endfacet
  facet normal -0.012129991686508928 0.9902677527539648 0.13864573977334368
    outer loop
      vertex 48.39883041381836 82.13357162475586 6.8172500343061975
      vertex 78.44158172607422 83.4560432434082 -1.0889726620444407e-15
      vertex 48.86165237426758 82.41111183166504 4.875429889652877
    endloop
  endfacet
  facet normal -0.012130914901886803 0.9902682962969805 0.13864177672231065
    outer loop
      vertex 48.38743209838867 82.10782241821289 7.0001700134016565
      vertex 78.44158172607422 83.4560432434082 -1.0889726620444407e-15
      vertex 48.39883041381836 82.13357162475586 6.8172500343061975
    endloop
  endfacet
  facet normal 0.9823564449829579 -0.18701822103858656 -8.387112924414472e-8
    outer loop
      vertex 77.70064163208008 79.56407165527344 27.733789703343064
      vertex 76.2490005493164 71.93899154663086 27.062999984715134
      vertex 78.44158172607422 83.4560432434082 -1.0889726620444407e-15
    endloop
  endfacet
  facet normal 0.6699950893180828 -0.062476438425775195 -0.7397318939529945
    outer loop
      vertex 79.93934059143066 79.30453300476074 29.783359786961228
      vertex 76.2490005493164 71.93899154663086 27.062999984715134
      vertex 77.70064163208008 79.56407165527344 27.733789703343064
    endloop
  endfacet
  facet normal -0.9250592171940087 0.33860229647991363 -0.17208698237500858
    outer loop
      vertex 45.50400161743164 74.8239917755127 7.99600007245317
      vertex 48.39883041381836 82.13357162475586 6.8172500343061975
      vertex 48.86165237426758 82.41111183166504 4.875429889652877
    endloop
  endfacet
  facet normal -0.9250592017726565 0.3386022679526239 -0.17208712140388369
    outer loop
      vertex 48.39883041381836 82.13357162475586 6.8172500343061975
      vertex 45.50400161743164 74.8239917755127 7.99600007245317
      vertex 45.359962463378906 75.26679229736328 9.641550323460251
    endloop
  endfacet
  facet normal -0.9277980017515263 0.28474356937205725 -0.24106423966887994
    outer loop
      vertex 47.89227294921875 81.8109016418457 9.077679893467574
      vertex 44.82699966430664 75.85999298095703 13.84599997708574
      vertex 47.149452209472656 81.45962333679199 11.521689674351363
    endloop
  endfacet
  facet normal -0.8702121085091441 0.16879648775479256 -0.46285919233144357
    outer loop
      vertex 44.82699966430664 75.85999298095703 13.84599997708574
      vertex 44.63827133178711 80.80146217346191 16.002889892552048
      vertex 47.149452209472656 81.45962333679199 11.521689674351363
    endloop
  endfacet
  facet normal 0.07982288777186997 0.40132258076046246 -0.9124519125737649
    outer loop
      vertex 44.82699966430664 75.85999298095703 13.84599997708574
      vertex 27.692001342773438 75.85999298095703 12.34700038144365
      vertex 44.63827133178711 80.80146217346191 16.002889892552048
    endloop
  endfacet
  facet normal -0.9250591908992827 0.3386018890772054 -0.1720879253350234
    outer loop
      vertex 47.89227294921875 81.8109016418457 9.077679893467574
      vertex 45.16400146484375 74.8239917755127 9.995999595616013
      vertex 44.82699966430664 75.85999298095703 13.84599997708574
    endloop
  endfacet
  facet normal -0.925059236001819 0.3386019558140587 -0.17208755157368355
    outer loop
      vertex 48.38743209838867 82.10782241821289 7.0001700134016565
      vertex 45.16400146484375 74.8239917755127 9.995999595616013
      vertex 47.89227294921875 81.8109016418457 9.077679893467574
    endloop
  endfacet
  facet normal -0.914455783048926 0.4046858297441741 -0.000007255668019940042
    outer loop
      vertex 45.16400146484375 74.8239917755127 9.995999595616013
      vertex 48.38743209838867 82.10782241821289 7.0001700134016565
      vertex 45.359962463378906 75.26679229736328 9.641550323460251
    endloop
  endfacet
  facet normal -0.9144570957168145 0.4046828632680031 -0.00001644321863456106
    outer loop
      vertex 48.39883041381836 82.13357162475586 6.8172500343061975
      vertex 45.359962463378906 75.26679229736328 9.641550323460251
      vertex 48.38743209838867 82.10782241821289 7.0001700134016565
    endloop
  endfacet
endsolid Untitled Scene
